<?xml version="1.0" encoding="UTF-8"?>
<!-- Do not edit this file with editors other than diagrams.net -->
<!DOCTYPE svg>  
<svg data-floor="ground-floor" xmlns="http://www.w3.org/2000/svg" xmlns:xlink="http://www.w3.org/1999/xlink" version="1.1"
    width="1201px" height="802px" viewBox="-0.5 -0.5 1201 802">
    <g>
        <rect x="0" y="0" width="1200" height="800" fill="#434343" stroke="rgb(0, 0, 0)"
             />
        <rect data-office="I40" x="670" y="600" width="170" height="110" fill="rgb(99 99 99)"
            stroke="rgb(0, 0, 0)" transform="rotate(90,755,655)"  />
        <rect data-office="I39" x="790" y="600" width="170" height="110" fill="rgb(99 99 99)"
            stroke="rgb(0, 0, 0)" transform="rotate(90,875,655)"  />
        <rect data-office="I38" x="890" y="620" width="170" height="70" fill="rgb(99 99 99)"
            stroke="rgb(0, 0, 0)" transform="rotate(90,975,655)"  />
        <rect data-office="I37a" x="1050" y="490" width="110" height="70" fill="rgb(99 99 99)"
            stroke="rgb(0, 0, 0)" transform="rotate(180,1105,525)"  />
        <rect data-office="I37b" x="1050" y="420" width="110" height="70" fill="rgb(99 99 99)"
            stroke="rgb(0, 0, 0)" transform="rotate(180,1105,455)"  />
        <rect data-office="I33" x="800" y="320" width="110" height="70" fill="rgb(99 99 99)"
            stroke="rgb(0, 0, 0)" transform="rotate(180,855,355)"  />
        <rect data-office="I34" x="910" y="320" width="110" height="70" fill="rgb(99 99 99)"
            stroke="rgb(0, 0, 0)" transform="rotate(180,965,355)"  />
        <rect data-office="I13b" x="360" y="30" width="170" height="110" fill="rgb(99 99 99)"
            stroke="rgb(0, 0, 0)" transform="rotate(180,445,85)"  />
        <rect data-office="I13a" x="97.5" y="-2.5" width="180" height="245" fill="rgb(99 99 99)"
            stroke="rgb(0, 0, 0)" transform="rotate(90,187.5,120)"  />
        <rect data-office="I06" x="320" y="480" width="160" height="70" fill="rgb(99 99 99)"
            stroke="rgb(0, 0, 0)" transform="rotate(180,400,515)"  />
        <rect data-office="domes2" x="130" y="480" width="160" height="70" fill="rgb(99 99 99)"
            stroke="rgb(0, 0, 0)" transform="rotate(180,210,515)"  />
        <rect data-office="makris" x="141.25" y="700" width="92.5" height="70" fill="rgb(99 99 99)"
            stroke="rgb(0, 0, 0)" transform="rotate(180,187.5,735)"  />
        <rect data-office="domes1" x="15" y="550" width="92.5" height="150" fill="rgb(99 99 99)"
            stroke="rgb(0, 0, 0)" transform="rotate(180,61.25,625)"  />
    </g>
</svg>