<?xml version="1.0" encoding="UTF-8"?>
<!-- Do not edit this file with editors other than diagrams.net -->
<!DOCTYPE svg>
<svg data-floor="b-floor" xmlns="http://www.w3.org/2000/svg" xmlns:xlink="http://www.w3.org/1999/xlink" version="1.1"
    width="1202px" height="801px" viewBox="-0.5 -0.5 1202 801">
    <g>
        <rect x="0" y="0" width="1200" height="800"  fill="#434343" stroke="rgb(0, 0, 0)" class="rectContainer" />
        <rect data-office="B10" x="110" y="130" width="60" height="60"  fill="rgb(99 99 99)" stroke="rgb(0, 0, 0)"
            pointer-events="all" />
        <rect data-office="B09" x="40" y="130" width="60" height="120"  fill="rgb(99 99 99)" stroke="rgb(0, 0, 0)"
            pointer-events="all" />
        <rect data-office="B11" x="210" y="100" width="60" height="120" fill="rgb(99 99 99)"
            stroke="rgb(0, 0, 0)" transform="rotate(90,240,160)" pointer-events="all" />
        <rect data-office="B12" x="350" y="100" width="60" height="120" fill="rgb(99 99 99)"
            stroke="rgb(0, 0, 0)" transform="rotate(90,380,160)" pointer-events="all" />
        <rect data-office="B13" x="450" y="60" width="60" height="60"  fill="rgb(99 99 99)" stroke="rgb(0, 0, 0)"
            pointer-events="all" />
        <rect data-office="B15" x="530" y="60" width="60" height="60"  fill="rgb(99 99 99)" stroke="rgb(0, 0, 0)"
            pointer-events="all" />
        <rect data-office="B16" x="530" y="120" width="60" height="60"  fill="rgb(99 99 99)" stroke="rgb(0, 0, 0)"
            pointer-events="all" />
        <rect data-office="B17" x="590" y="60" width="60" height="120"  fill="rgb(99 99 99)" stroke="rgb(0, 0, 0)"
            transform="rotate(90,620,120)" pointer-events="all" />
        <rect data-office="B20" x="670" y="60" width="60" height="60"  fill="rgb(99 99 99)" stroke="rgb(0, 0, 0)"
            pointer-events="all" />
        <rect data-office="B21" x="670" y="120" width="60" height="60"  fill="rgb(99 99 99)" stroke="rgb(0, 0, 0)"
            pointer-events="all" />
        <rect data-office="B22" x="790" y="110" width="60" height="120" fill="rgb(99 99 99)"
            stroke="rgb(0, 0, 0)" transform="rotate(90,820,170)" pointer-events="all" />
        <rect data-office="B25" x="890" y="14" width="60" height="120"  fill="rgb(99 99 99)" stroke="rgb(0, 0, 0)"
            transform="rotate(90,920,74)" pointer-events="all" />
        <rect data-office="B26" x="1050" y="44" width="60" height="120" fill="rgb(99 99 99)"
            stroke="rgb(0, 0, 0)" transform="rotate(90,1080,104)" pointer-events="all" />
        <rect data-office="B27" x="1050" y="104" width="60" height="120" fill="rgb(99 99 99)"
            stroke="rgb(0, 0, 0)" transform="rotate(90,1080,164)" pointer-events="all" />
        <rect data-office="B40" x="905" y="315" width="90" height="120" fill="rgb(99 99 99)"
            stroke="rgb(0, 0, 0)" transform="rotate(90,950,375)" pointer-events="all" />
        <rect data-office="B42" x="1060" y="300" width="60" height="120" fill="rgb(99 99 99)"
            stroke="rgb(0, 0, 0)" transform="rotate(90,1090,360)" pointer-events="all" />
        <rect data-office="B47" x="940" y="470" width="60" height="120" fill="rgb(99 99 99)"
            stroke="rgb(0, 0, 0)" transform="rotate(90,970,530)" pointer-events="all" />
        <rect data-office="B50" x="940" y="560" width="60" height="120" fill="rgb(99 99 99)"
            stroke="rgb(0, 0, 0)" transform="rotate(90,970,620)" pointer-events="all" />
        <rect data-office="B51" x="920" y="640" width="100" height="120" fill="rgb(99 99 99)"
            stroke="rgb(0, 0, 0)" transform="rotate(90,970,700)" pointer-events="all" />
        <rect data-office="B57a" x="790" y="600" width="60" height="70"  fill="rgb(99 99 99)" stroke="rgb(0, 0, 0)"
            pointer-events="all" />
        <rect data-office="B57b" x="790" y="670" width="60" height="80"  fill="rgb(99 99 99)" stroke="rgb(0, 0, 0)"
            pointer-events="all" />
        <rect data-office="B56" x="655" y="615" width="150" height="120" fill="rgb(99 99 99)"
            stroke="rgb(0, 0, 0)" transform="rotate(90,730,675)" pointer-events="all" />
        <rect data-office="B07" x="50" y="550" width="60" height="60"  fill="rgb(99 99 99)" stroke="rgb(0, 0, 0)"
            pointer-events="all" />
        <rect data-office="B06" x="50" y="610" width="60" height="60"  fill="rgb(99 99 99)" stroke="rgb(0, 0, 0)"
            pointer-events="all" />
        <rect data-office="B66" x="200" y="550" width="60" height="60"  fill="rgb(99 99 99)" stroke="rgb(0, 0, 0)"
            pointer-events="all" />
        <rect data-office="B67" x="200" y="610" width="60" height="60"  fill="rgb(99 99 99)" stroke="rgb(0, 0, 0)"
            pointer-events="all" />
        <rect data-office="B65" x="290" y="550" width="60" height="60"  fill="rgb(99 99 99)" stroke="rgb(0, 0, 0)"
            pointer-events="all" />
        <rect data-office="B64" x="290" y="610" width="60" height="60"  fill="rgb(99 99 99)" stroke="rgb(0, 0, 0)"
            pointer-events="all" />
        <rect data-office="B62" x="380" y="550" width="60" height="60"  fill="rgb(99 99 99)" stroke="rgb(0, 0, 0)"
            pointer-events="all" />
        <rect data-office="B63" x="380" y="610" width="30" height="60"  fill="rgb(99 99 99)" stroke="rgb(0, 0, 0)"
            pointer-events="all" />
        <rect data-office="B61" x="410" y="610" width="30" height="60"  fill="rgb(99 99 99)" stroke="rgb(0, 0, 0)"
            pointer-events="all" />
        <rect data-office="B60" x="460" y="550" width="60" height="60"  fill="rgb(99 99 99)" stroke="rgb(0, 0, 0)"
            pointer-events="all" />
        <rect data-office="B59" x="460" y="610" width="60" height="60"  fill="rgb(99 99 99)" stroke="rgb(0, 0, 0)"
            pointer-events="all" />
    </g>
</svg>