<?xml version="1.0" encoding="utf-8"?>
<svg viewBox="-0.5 -0.5 1202 801" xmlns="http://www.w3.org/2000/svg">
  <rect width="1200" height="800" class="rectContainer" fill="rgb(99 99 99)" stroke="rgb(0, 0, 0)" y="0" x="0"/>
  <rect data-office="B09" fill="rgb(99 99 99)" stroke="rgb(0, 0, 0)" x="58.516" y="133.4" width="40" height="80"/>
  <rect data-office="B10" fill="rgb(99 99 99)" stroke="rgb(0, 0, 0)" x="130.7" y="133.427" width="44.879" height="40"/>
  <rect data-office="B11" fill="rgb(99 99 99)" stroke="rgb(0, 0, 0)" x="198.5" y="133.4" width="80" height="40"/>
  <rect data-office="B12" fill="rgb(99 99 99)" stroke="rgb(0, 0, 0)" x="312.3" y="133.4" width="80" height="40"/>
  <rect data-office="B13" fill="rgb(99 99 99)" stroke="rgb(0, 0, 0)" x="398.1" y="94.396" width="40" height="40"/>
  <rect data-office="B15" fill="rgb(99 99 99)" stroke="rgb(0, 0, 0)" x="507.2" y="94.4" width="40" height="40"/>
  <rect data-office="B16" fill="rgb(99 99 99)" stroke="rgb(0, 0, 0)" x="507.2" y="134.615" width="40" height="40"/>
  <rect data-office="B17" fill="rgb(99 99 99)" stroke="rgb(0, 0, 0)" x="556.2" y="94.4" width="40" height="80"/>
  <rect data-office="B20" fill="rgb(99 99 99)" stroke="rgb(0, 0, 0)" x="620.2" y="94.4" width="40" height="40"/>
  <rect data-office="B21" fill="rgb(99 99 99)" stroke="rgb(0, 0, 0)" x="620.2" y="134.6" width="40" height="40"/>
  <rect data-office="B22" fill="rgb(99 99 99)" stroke="rgb(0, 0, 0)" x="821.2" y="94.4" width="40" height="80"/>
  <rect data-office="B25" fill="rgb(99 99 99)" stroke="rgb(0, 0, 0)" x="883.7" y="49.701" width="80" height="40"/>
  <rect data-office="B26" fill="rgb(99 99 99)" stroke="rgb(0, 0, 0)" x="990.2" y="84.4" width="80" height="40"/>
  <rect data-office="B27" fill="rgb(99 99 99)" stroke="rgb(0, 0, 0)" x="990.2" y="124.6" width="80" height="40"/>
  <rect data-office="B40" fill="rgb(99 99 99)" stroke="rgb(0, 0, 0)" x="883.7" y="285.311" width="80" height="80"/>
  <rect data-office="B42" fill="rgb(99 99 99)" stroke="rgb(0, 0, 0)" x="990.2" y="285.3" width="80" height="40"/>
  <rect data-office="B47" fill="rgb(99 99 99)" stroke="rgb(0, 0, 0)" x="883.7" y="450" width="80" height="40"/>
  <rect data-office="B50" fill="rgb(99 99 99)" stroke="rgb(0, 0, 0)" x="883.7" y="518.717" width="80" height="40"/>
  <rect data-office="B51" fill="rgb(99 99 99)" stroke="rgb(0, 0, 0)" x="883.7" y="559.7" width="80" height="80"/>
  <rect data-office="B56" fill="rgb(99 99 99)" stroke="rgb(0, 0, 0)" x="608.4" y="541.2" width="100" height="100"/>
  <rect data-office="B57b" fill="rgb(99 99 99)" stroke="rgb(0, 0, 0)" x="709.5" y="591.182" width="50" height="50"/>
  <rect data-office="B57a" fill="rgb(99 99 99)" stroke="rgb(0, 0, 0)" x="709.5" y="540.587" width="50" height="50"/>
  <rect data-office="B60" fill="rgb(99 99 99)" stroke="rgb(0, 0, 0)" x="398.1" y="530.587" width="60" height="60"/>
  <rect data-office="B59" fill="rgb(99 99 99)" stroke="rgb(0, 0, 0)" x="398.1" y="590.587" width="60" height="60"/>
  <rect data-office="B62" fill="rgb(99 99 99)" stroke="rgb(0, 0, 0)" x="312.3" y="530.587" width="60" height="60"/>
  <rect data-office="B63" fill="rgb(99 99 99)" stroke="rgb(0, 0, 0)" x="312.3" y="590.587" width="30" height="60"/>
  <rect data-office="B61" fill="rgb(99 99 99)" stroke="rgb(0, 0, 0)" x="342.3" y="590.587" width="30" height="60"/>
  <rect data-office="B65" fill="rgb(99 99 99)" stroke="rgb(0, 0, 0)" x="240" y="530.587" width="60" height="60"/>
  <rect data-office="B64" fill="rgb(99 99 99)" stroke="rgb(0, 0, 0)" x="240" y="590.587" width="60" height="60"/>
  <rect data-office="B67" fill="rgb(99 99 99)" stroke="rgb(0, 0, 0)" x="165.5" y="590.587" width="60" height="60"/>
  <rect data-office="B66" fill="rgb(99 99 99)" stroke="rgb(0, 0, 0)" x="165.5" y="530.587" width="60" height="60"/>
  <rect data-office="B06" fill="rgb(99 99 99)" stroke="rgb(0, 0, 0)" x="45.245" y="590.587" width="60" height="60"/>
  <rect data-office="B07" fill="rgb(99 99 99)" stroke="rgb(0, 0, 0)" x="45.245" y="530.587" width="60" height="60"/>
  <text data-office="B09" style=" font-size: 32.4px;" x="74.707" y="176.526" transform="matrix(0.485717, 0, 0, 0.496457, 27.473795, 92.367111)">B09<tspan x="74.70700073242188" dy="1em">​</tspan><tspan x="74.70700073242188" dy="1em">​</tspan></text>
  <text data-office="B10" style=" font-size: 32.4px;" x="74.707" y="176.526" transform="matrix(0.48569, 0, 0, 0.494552, 102.761002, 71.642525)">B10<tspan x="74.70700073242188" dy="1em">​</tspan><tspan x="74.70700073242188" dy="1em">​</tspan></text>
  <text data-office="B11" style=" font-size: 32.4px;" x="74.707" y="176.526" transform="matrix(0.607123, 0, 0, 0.559665, 174.991135, 61.611164)">B11<tspan x="74.70700073242188" dy="1em">​</tspan><tspan x="74.70700073242188" dy="1em">​</tspan></text>
  <text data-office="B12" style=" font-size: 32.4px;" x="74.707" y="176.526" transform="matrix(0.607123, 0, 0, 0.559665, 289.455627, 61.626453)">B12<tspan x="74.70700073242188" dy="1em">​</tspan><tspan x="74.70700073242188" dy="1em">​</tspan></text>
  <text data-office="B13" style=" font-size: 32.4px;" x="74.707" y="176.526" transform="matrix(0.502976, 0, 0, 0.493135, 365.145325, 32.562393)">B13<tspan x="74.70700073242188" dy="1em">​</tspan><tspan x="74.70700073242188" dy="1em">​</tspan></text>
  <text data-office="B15" style=" font-size: 32.4px;" x="74.707" y="176.526" transform="matrix(0.485632, 0, 0, 0.485611, 476.919891, 33.67181)">B15<tspan x="74.70700073242188" dy="1em">​</tspan><tspan x="74.70700073242188" dy="1em">​</tspan></text>
  <text data-office="B16" style=" font-size: 32.4px;" x="74.707" y="176.526" transform="matrix(0.485632, 0, 0, 0.485611, 476.965973, 73.423462)">B16<tspan x="74.70700073242188" dy="1em">​</tspan><tspan x="74.70700073242188" dy="1em">​</tspan></text>
  <text data-office="B17" style=" font-size: 32.4px;" x="74.707" y="176.526" transform="matrix(0.485731, 0, 0, 0.499518, 525.959778, 49.269581)">B17<tspan x="74.70700073242188" dy="1em">​</tspan><tspan x="74.70700073242188" dy="1em">​</tspan></text>
  <text data-office="B20" style=" font-size: 32.4px;" x="74.707" y="176.526" transform="matrix(0.485731, 0, 0, 0.499518, 589.418274, 32.6436)">B20<tspan x="74.70700073242188" dy="1em">​</tspan><tspan x="74.70700073242188" dy="1em">​</tspan></text>
  <text data-office="B21" style=" font-size: 32.4px;" x="74.707" y="176.526" transform="matrix(0.485731, 0, 0, 0.499518, 589.398621, 71.543602)">B21<tspan x="74.70700073242188" dy="1em">​</tspan><tspan x="74.70700073242188" dy="1em">​</tspan></text>
  <text data-office="B22" style=" font-size: 32.4px;" x="74.707" y="176.526" transform="matrix(0.485704, 0, 0, 0.49861, 790.11676, 50.398979)">B22<tspan x="74.70700073242188" dy="1em">​</tspan><tspan x="74.70700073242188" dy="1em">​</tspan></text>
  <text data-office="B25" style=" font-size: 32.4px;" x="74.707" y="176.526" transform="matrix(0.607123, 0, 0, 0.559665, 861.631165, -22.416292)">B25<tspan x="74.70700073242188" dy="1em">​</tspan><tspan x="74.70700073242188" dy="1em">​</tspan></text>
  <text data-office="B26" style=" font-size: 32.4px;" x="74.707" y="176.526" transform="matrix(0.607123, 0, 0, 0.559665, 967.13208, 12.828281)">B26<tspan x="74.70700073242188" dy="1em">​</tspan><tspan x="74.70700073242188" dy="1em">​</tspan></text>
  <text data-office="B27" style=" font-size: 32.4px;" x="74.707" y="176.526" transform="matrix(0.607123, 0, 0, 0.559665, 967.143677, 51.367199)">B27<tspan x="74.70700073242188" dy="1em">​</tspan><tspan x="74.70700073242188" dy="1em">​</tspan></text>
  <text data-office="B40" style=" font-size: 32.4px;" x="74.707" y="176.526" transform="matrix(0.607123, 0, 0, 0.559665, 859.959473, 233.626099)">B40<tspan x="74.70700073242188" dy="1em">​</tspan><tspan x="74.70700073242188" dy="1em">​</tspan></text>
  <text data-office="B42" style=" font-size: 32.4px;" x="74.707" y="176.526" transform="matrix(0.607123, 0, 0, 0.559665, 966.635986, 213.70488)">B42<tspan x="74.70700073242188" dy="1em">​</tspan><tspan x="74.70700073242188" dy="1em">​</tspan></text>
  <text data-office="B47" style=" font-size: 32.4px;" x="74.707" y="176.526" transform="matrix(0.607123, 0, 0, 0.559665, 859.943665, 378.202057)">B47<tspan x="74.70700073242188" dy="1em">​</tspan><tspan x="74.70700073242188" dy="1em">​</tspan></text>
  <text data-office="B50" style=" font-size: 32.4px;" x="74.707" y="176.526" transform="matrix(0.607123, 0, 0, 0.559665, 859.943665, 445.186066)">B50<tspan x="74.70700073242188" dy="1em">​</tspan><tspan x="74.70700073242188" dy="1em">​</tspan></text>
  <text data-office="B52" style=" font-size: 32.4px;" x="74.707" y="176.526" transform="matrix(0.607123, 0, 0, 0.559665, 859.943665, 505.259613)">B51<tspan x="74.70700073242188" dy="1em">​</tspan><tspan x="74.70700073242188" dy="1em">​</tspan></text>
  <text data-office="B57a" style=" font-size: 32.4px;" x="74.707" y="176.526" transform="matrix(0.48572, 0, 0, 0.501569, 683.222534, 482.490234)">B57a<tspan x="74.70700073242188" dy="1em">​</tspan><tspan x="74.70700073242188" dy="1em">​</tspan></text>
  <text data-office="B57b" style=" font-size: 32.4px;" x="74.707" y="176.526" transform="matrix(0.48572, 0, 0, 0.501569, 683.213318, 531.027649)">B57b<tspan x="74.70700073242188" dy="1em">​</tspan><tspan x="74.70700073242188" dy="1em">​</tspan></text>
  <text data-office="B56" style=" font-size: 32.4px;" x="74.707" y="176.526" transform="matrix(0.607123, 0, 0, 0.559665, 598.536743, 499.383667)">B56<tspan x="74.70700073242188" dy="1em">​</tspan><tspan x="74.70700073242188" dy="1em">​</tspan></text>
  <text data-office="B60" style=" font-size: 32.4px;" x="74.707" y="176.526" transform="matrix(0.693944, 0, 0, 0.676284, 356.056335, 452.291412)">B60<tspan x="74.70700073242188" dy="1em">​</tspan><tspan x="74.70700073242188" dy="1em">​</tspan></text>
  <text data-office="B62" style=" font-size: 32.4px;" x="74.707" y="176.526" transform="matrix(0.693915, 0, 0, 0.680186, 270.516632, 451.507385)">B62<tspan x="74.70700073242188" dy="1em">​</tspan><tspan x="74.70700073242188" dy="1em">​</tspan></text>
  <text data-office="B65" style=" font-size: 32.4px;" x="74.707" y="176.526" transform="matrix(0.69379, 0, 0, 0.684515, 197.483658, 450.809845)">B65<tspan x="74.70700073242188" dy="1em">​</tspan><tspan x="74.70700073242188" dy="1em">​</tspan></text>
  <text data-office="B66" style=" font-size: 32.4px;" x="74.707" y="176.526" transform="matrix(0.69379, 0, 0, 0.684515, 123.986198, 450.964417)">B66<tspan x="74.70700073242188" dy="1em">​</tspan><tspan x="74.70700073242188" dy="1em">​</tspan></text>
  <text data-office="B07" style=" font-size: 32.4px;" x="74.707" y="176.526" transform="matrix(0.693939, 0, 0, 0.682533, 2.563439, 451.321503)">B07<tspan x="74.70700073242188" dy="1em">​</tspan><tspan x="74.70700073242188" dy="1em">​</tspan></text>
  <text data-office="B06" style=" font-size: 32.4px;" x="74.707" y="176.526" transform="matrix(0.693939, 0, 0, 0.682533, 2.563435, 507.862823)">B06<tspan x="74.70700073242188" dy="1em">​</tspan><tspan x="74.70700073242188" dy="1em">​</tspan></text>
  <text data-office="B67" style=" font-size: 32.4px;" x="74.707" y="176.526" transform="matrix(0.69379, 0, 0, 0.68712, 123.986206, 505.339813)">B67<tspan x="74.70700073242188" dy="1em">​</tspan><tspan x="74.70700073242188" dy="1em">​</tspan></text>
  <text data-office="B64" style=" font-size: 32.4px;" x="74.707" y="176.526" transform="matrix(0.69379, 0, 0, 0.684515, 197.483643, 505.808411)">B64<tspan x="74.70700073242188" dy="1em">​</tspan><tspan x="74.70700073242188" dy="1em">​</tspan></text>
  <text data-office="B59" style=" font-size: 32.4px;" x="74.707" y="176.526" transform="matrix(0.693944, 0, 0, 0.676284, 356.056335, 507.087982)">B59<tspan x="74.70700073242188" dy="1em">​</tspan><tspan x="74.70700073242188" dy="1em">​</tspan></text>
  <text data-office="B61" style=" font-size: 32.4px;" x="74.707" y="176.526" transform="matrix(0.398703, 0, 0, 0.408298, 315.526764, 551.498291)">B61<tspan x="74.70700073242188" dy="1em">​</tspan><tspan x="74.70700073242188" dy="1em">​</tspan></text>
  <text data-office="B63" style=" font-size: 32.4px;" x="74.707" y="176.526" transform="matrix(0.398703, 0, 0, 0.408298, 285.894775, 551.498291)">B63<tspan x="74.70700073242188" dy="1em">​</tspan><tspan x="74.70700073242188" dy="1em">​</tspan></text>
</svg>