<?xml version="1.0" encoding="UTF-8"?> 
<!DOCTYPE svg>  
<svg data-floor="ground-floor" xmlns="http://www.w3.org/2000/svg" xmlns:xlink="http://www.w3.org/1999/xlink" version="1.1"
    width="1201px" height="802px" viewBox="-0.5 -0.5 1201 802">
  <rect x="0" y="0" width="1200" height="800" class="rectContainer"  fill="rgb(99 99 99)" stroke="rgb(0, 0, 0)" />
<rect data-office="I13a" fill="rgb(99 99 99)" stroke="rgb(0, 0, 0)" x="96.008" y="58.804" width="180" height="150"/>
  <rect data-office="I13b" fill="rgb(99 99 99)" stroke="rgb(0, 0, 0)" x="331.154" y="58.8" width="160" height="80"/>
  <rect data-office="domes1" fill="rgb(99 99 99)" stroke="rgb(0, 0, 0)" x="96" y="518.454" width="60" height="100"/>
  <rect data-office="makris" fill="rgb(99 99 99)" stroke="rgb(0, 0, 0)" x="180" y="631.222" width="80" height="80"/>
  <rect data-office="I06" fill="rgb(99 99 99)" stroke="rgb(0, 0, 0)" x="300" y="450" width="100" height="60"/>
  <rect data-office="domes2" fill="rgb(99 99 99)" stroke="rgb(0, 0, 0)" x="180" y="450" width="100" height="60"/>
  <rect data-office="I33" fill="rgb(99 99 99)" stroke="rgb(0, 0, 0)" x="771.744" y="391" width="100" height="60"/>
  <rect data-office="I33" fill="rgb(99 99 99)" stroke="rgb(0, 0, 0)" x="878.383" y="391" width="100" height="60"/>
  <rect data-office="I37b" fill="rgb(99 99 99)" stroke="rgb(0, 0, 0)" x="1000" y="466.971" width="100" height="60"/>
  <rect data-office="I37a" fill="rgb(99 99 99)" stroke="rgb(0, 0, 0)" x="1000" y="528" width="100" height="60"/>
  <rect data-office="I40" fill="rgb(99 99 99)" stroke="rgb(0, 0, 0)" x="650" y="590" width="100" height="160"/>
  <rect data-office="I39" fill="rgb(99 99 99)" stroke="rgb(0, 0, 0)" x="760" y="590" width="100" height="160"/>
  <rect data-office="I38" fill="rgb(99 99 99)" stroke="rgb(0, 0, 0)" x="870" y="590" width="80" height="160"/>
  <text data-office="I13a" style="font-size: 36px;" x="146" y="147.178" transform="matrix(0.999159, 0, 0, 1.033095, 0.122828, -3.778922)">I13a </text>
  <text data-office="I13b" style="font-size: 47.3px;" x="364.73" y="119.681" transform="matrix(0.651176, 0, 0, 0.709677, 140.747147, 27.549644)">I13b</text>
  <text data-office="domes1" style="font-size: 22.6px;" x="105.723" y="564.707" transform="matrix(0.478043, 0, 0, 0.713331, 57.60379, 169.840912)">domes1</text>
  <text data-office="domes2" style="font-size: 22.6px;" x="105.723" y="564.707" transform="matrix(0.568393, 0, 0, 0.713331, 146.461945, 83.173988)">domes2</text>
  <text data-office="makris" style="font-size: 22.6px;" x="206.594" y="666.385" transform="matrix(0.781694, 0, 0, 1, 31.382256, 13.718419)">makris<tspan x="206.593994140625" dy="1em">​</tspan><tspan x="206.593994140625" dy="1em">​</tspan></text>
  <text data-office="I06" style="font-size: 22.6px;" x="334.094" y="487.239">I06</text>
  <text data-office="I33" style="font-size: 22.6px;" x="805.568" y="428.692">I33</text>
  <text data-office="I34" style="font-size: 22.6px;" x="910.633" y="429.201">I34</text>
  <text data-office="I37b" style="font-size: 22.6px;" x="1027.2" y="507.681">I37b</text>
  <text data-office="I37a" style="font-size: 22.6px;" x="1027.2" y="566.232">I37a</text>
  <text data-office="I38" style="font-size: 22.6px;" x="893.432" y="672.776">I38</text>
  <text data-office="I39" style="font-size: 22.6px;" x="794" y="672.755">I39</text>
  <text data-office="I40" style="font-size: 22.6px;" x="682.856" y="672.755">I40</text>
</svg>