<!DOCTYPE svg >
                <svg data-office="I40"   xmlns="http://www.w3.org/2000/svg" xmlns:xlink="http://www.w3.org/1999/xlink" 
    width="1202px" height="801px" viewBox="-0.5 -0.5 1202 802">
                    <g>
                        <rect class="rectContainer" width="1200" height="800"  fill="#434343" stroke="rgb(0, 0, 0)" />
                        <path fill="rgb(99 99 99)" stroke="rgb(0, 0, 0)" d="M 645 736 L 705 736 L 705 715 L 745 750 L 705 785 L 705 764 L 645 764 L 645 750 Z"
                              stroke-miterlimit="10"
                            transform="rotate(270,695,750)" pointer-events="all" />
                        <path fill="rgb(99 99 99)" stroke="rgb(0, 0, 0)" d="M 0 331 L 60 331 L 60 310 L 100 345 L 60 380 L 60 359 L 0 359 L 0 345 Z"
                              stroke-miterlimit="10"
                            pointer-events="all" />
                        <rect data-user="" data-outlet="" data-position="1" class="rectUser" width="120px" height="60px"  fill="rgb(99 99 99)" stroke="rgb(0, 0, 0)" x="90" y="640" transform="rotate(90,150,670)"/>
                        <rect data-user="" data-outlet="" data-position="2" class="rectUser" width="120px" height="60px"  fill="rgb(99 99 99)" stroke="rgb(0, 0, 0)" x="450" y="670"/>
                        <rect data-user="" data-outlet="" data-position="3" class="rectUser" width="120px" height="60px"  fill="rgb(99 99 99)" stroke="rgb(0, 0, 0)" x="980" y="670"/>
                        <rect data-user="" data-outlet="" data-position="4" class="rectUser" width="120px" height="60px"  fill="rgb(99 99 99)" stroke="rgb(0, 0, 0)" x="450" y="80"/>
                        <rect data-user="" data-outlet="" data-position="5" class="rectUser" width="120px" height="60px"  fill="rgb(99 99 99)" stroke="rgb(0, 0, 0)" x="120" y="80"/>
                        <rect data-user="" data-outlet="" data-position="6" class="rectUser" width="120px" height="60px"  fill="rgb(99 99 99)" stroke="rgb(0, 0, 0)" x="980" y="80"/>
                    </g>
                </svg>